<?xml version="1.0" encoding="UTF-8" standalone="no"?>
<svg
   width="512.4"
   height="512"
   enable-background="new"
   version="1.1"
   viewBox="0 0 512.4 512"
   id="svg13"
   sodipodi:docname="logo.svg"
   inkscape:version="1.3.2 (091e20ef0f, 2023-11-25)"
   xmlns:inkscape="http://www.inkscape.org/namespaces/inkscape"
   xmlns:sodipodi="http://sodipodi.sourceforge.net/DTD/sodipodi-0.dtd"
   xmlns="http://www.w3.org/2000/svg"
   xmlns:svg="http://www.w3.org/2000/svg">
  <sodipodi:namedview
     id="namedview13"
     pagecolor="#ffffff"
     bordercolor="#000000"
     borderopacity="0.25"
     inkscape:showpageshadow="2"
     inkscape:pageopacity="0.0"
     inkscape:pagecheckerboard="0"
     inkscape:deskcolor="#d1d1d1"
     inkscape:zoom="0.91796875"
     inkscape:cx="147.06383"
     inkscape:cy="53.378723"
     inkscape:window-width="2194"
     inkscape:window-height="1168"
     inkscape:window-x="0"
     inkscape:window-y="0"
     inkscape:window-maximized="1"
     inkscape:current-layer="svg13" />
  <defs
     id="defs4">
    <linearGradient
       id="a"
       x1="256"
       x2="256"
       y1="18"
       y2="494"
       gradientTransform="matrix(1 0 0 1.076 0 -19.36)"
       gradientUnits="userSpaceOnUse">
      <stop
         stop-color="#eaeaea"
         offset="0"
         id="stop1" />
      <stop
         stop-color="#f4f4f4"
         offset="1"
         id="stop2" />
    </linearGradient>
    <linearGradient
       id="linearGradient-1"
       x1="122.9"
       x2="154.98"
       y1="246.97"
       y2="258.53"
       gradientTransform="scale(.99999 1)"
       gradientUnits="userSpaceOnUse">
      <stop
         offset="0"
         id="stop3" />
      <stop
         stop-opacity="0"
         offset="1"
         id="stop4" />
    </linearGradient>
    <linearGradient
       x1="122.89636"
       y1="246.97452"
       x2="154.97651"
       y2="258.53493"
       id="linearGradient-1-3"
       gradientTransform="scale(0.99998778,1.0000122)"
       gradientUnits="userSpaceOnUse">
      <stop
         stop-color="#000000"
         offset="0%"
         id="stop1-6" />
      <stop
         stop-color="#000000"
         stop-opacity="0"
         offset="100%"
         id="stop2-7" />
    </linearGradient>
  </defs>
  <rect
     width="512"
     height="512"
     color="#000000"
     enable-background="accumulate"
     fill="url(#a)"
     id="rect4"
     style="fill:#ffffff" />
  <path
     d="m-208.3 605.6c-7.842 0-14.55 5.029-17.32 12.19-0.0612-6.7e-4 -0.1208 0-0.1823 0-7.088 0-12.83 6.002-12.83 13.41 0 7.404 5.746 13.41 12.83 13.41h33.83c5.155 0 9.333-4.365 9.333-9.75 0-4.543-2.974-8.363-7-9.445 1e-3 -0.1029 0-0.2015 0-0.3047 0-10.77-8.357-19.5-18.67-19.5z"
     color="#000000"
     display="none"
     enable-background="accumulate"
     fill="#fff"
     stroke="#ccc"
     stroke-width="4"
     id="path8" />
  <path
     d="m288.9 828.1c-6.349 0-11.78 4.072-14.02 9.867-0.0496-5.5e-4 -0.0978 0-0.1476 0-5.738 0-10.39 4.86-10.39 10.85 0 5.995 4.652 10.85 10.39 10.85h27.39c4.173 0 7.557-3.534 7.557-7.894 0-3.678-2.408-6.771-5.667-7.647 1e-3 -0.0833 0-0.1632 0-0.2467 0-8.719-6.766-15.79-15.11-15.79z"
     color="#000000"
     display="none"
     enable-background="accumulate"
     fill="none"
     stroke="#ccc"
     stroke-width="4"
     id="path9" />
  <g
     transform="translate(0 -558.4)"
     display="none"
     fill="#00f"
     fill-opacity=".08118"
     stroke="#00f"
     id="g13">
    <path
       d="m166.1 576.4h179.9c145.3 0 166.1 20.74 166.1 165.9v144.2c0 145.2-20.76 165.9-166.1 165.9h-179.9c-145.3 0-166.1-20-166.1-165.5v-144.2c0-145.2 20.76-165.9 166.1-165.9z"
       display="inline"
       id="path10" />
    <circle
       transform="matrix(1.2 0 0 1.2 -51.2 528.8)"
       cx="256"
       cy="238"
       r="120"
       color="#000000"
       display="inline"
       enable-background="accumulate"
       stroke-width=".8333"
       id="circle10" />
    <g
       stroke-linecap="round"
       stroke-linejoin="round"
       id="g12">
      <rect
         x="120"
         y="678.4"
         width="272"
         height="272"
         color="#000000"
         display="inline"
         enable-background="accumulate"
         id="rect10" />
      <rect
         x="104"
         y="694.4"
         width="304"
         height="240"
         color="#000000"
         display="inline"
         enable-background="accumulate"
         id="rect11" />
      <rect
         x="136"
         y="662.4"
         width="240"
         height="304"
         color="#000000"
         display="inline"
         enable-background="accumulate"
         id="rect12" />
    </g>
  </g>
  <g
     id="g6"
     transform="matrix(1.2983604,0,0,1.2983604,90.284829,50.460967)">
    <polygon
       fill="#47c5fb"
       points="0.00054935622,157.66578 48.800961,206.4662 255.26771,0.00054935622 157.66578,0.00054935622 "
       id="polygon2" />
    <polygon
       fill="#47c5fb"
       points="169.84293,230.82059 255.26782,145.39679 156.56718,145.39679 72.148711,229.81527 121.13261,279.53091 "
       id="polygon3" />
    <polygon
       fill="#00569e"
       points="158.21459,316.61267 255.26716,316.61267 169.84227,230.82081 121.13305,279.53112 "
       id="polygon4-5" />
    <polygon
       fill="#00b5f8"
       points="120.40108,181.56256 169.84205,230.82114 121.13283,279.53145 71.599574,230.36407 "
       id="polygon5-3" />
    <polygon
       fill-opacity="0.8"
       fill="url(#linearGradient-1)"
       points="161.6929,266.07223 165.72188,234.94131 121.13283,279.53145 "
       id="polygon6-5"
       style="fill:url(#linearGradient-1-3)" />
  </g>
</svg>
