<?xml version="1.0" encoding="UTF-8" standalone="no"?>
<!-- Created with Inkscape (http://www.inkscape.org/) -->

<svg
   width="512"
   height="512"
   viewBox="0 0 135.46666 135.46667"
   version="1.1"
   id="svg1"
   xml:space="preserve"
   inkscape:version="1.3.2 (091e20ef0f, 2023-11-25)"
   sodipodi:docname="logo.svg"
   xmlns:inkscape="http://www.inkscape.org/namespaces/inkscape"
   xmlns:sodipodi="http://sodipodi.sourceforge.net/DTD/sodipodi-0.dtd"
   xmlns="http://www.w3.org/2000/svg"
   xmlns:svg="http://www.w3.org/2000/svg"><sodipodi:namedview
     id="namedview1"
     pagecolor="#ffffff"
     bordercolor="#000000"
     borderopacity="0.25"
     inkscape:showpageshadow="2"
     inkscape:pageopacity="0.0"
     inkscape:pagecheckerboard="0"
     inkscape:deskcolor="#d1d1d1"
     inkscape:document-units="mm"
     inkscape:zoom="1.184265"
     inkscape:cx="31.665211"
     inkscape:cy="219.54546"
     inkscape:window-width="2194"
     inkscape:window-height="1168"
     inkscape:window-x="0"
     inkscape:window-y="0"
     inkscape:window-maximized="1"
     inkscape:current-layer="layer2" /><defs
     id="defs1" /><g
     inkscape:label="Layer 1"
     inkscape:groupmode="layer"
     id="layer1"><rect
       style="fill:#0f6ec7;fill-opacity:1;stroke-width:1.05691"
       id="rect1"
       width="135.47289"
       height="135.46602"
       x="0.0056042545"
       y="-135.4615"
       transform="scale(1,-1)"
       inkscape:label="rect1" /></g><g
     inkscape:groupmode="layer"
     id="layer2"
     inkscape:label="Layer 2"><g
       id="g1"
       transform="translate(0.09605836,0.62697894)"><circle
         style="fill:#ffffff;fill-opacity:1;stroke-width:0.48973"
         id="circle1"
         cx="67.645988"
         cy="57.878712"
         r="26.346655" /><circle
         style="fill:#0f6ec7;fill-opacity:1;stroke-width:0.308631"
         id="path1"
         cx="67.645988"
         cy="57.878712"
         r="16.603809" /></g><path
       d="m 33.482177,94.330846 q -1.761,0 -3.12761,-0.889672 -1.357437,-0.898843 -2.127875,-2.485578 -0.770437,-1.586734 -0.770437,-3.641234 0,-2.072844 0.770437,-3.659578 0.770438,-1.586735 2.127875,-2.476407 1.36661,-0.898843 3.12761,-0.898843 1.770172,0 3.127609,0.898843 1.357438,0.889672 2.127875,2.476407 0.770438,1.586734 0.770438,3.659578 0,2.0545 -0.770438,3.641234 -0.770437,1.586735 -2.127875,2.485578 -1.357437,0.889672 -3.127609,0.889672 z m 0,-1.164828 q 1.348266,0 2.430547,-0.697062 1.082281,-0.697063 1.71514,-2.008641 0.642032,-1.311578 0.642032,-3.145953 0,-1.843547 -0.642032,-3.155125 -0.632859,-1.311578 -1.71514,-2.008641 -1.082281,-0.706234 -2.430547,-0.706234 -1.339094,0 -2.430547,0.697062 -1.082281,0.697063 -1.724313,2.017813 -0.632859,1.311578 -0.632859,3.155125 0,1.825203 0.632859,3.136781 0.642032,1.311578 1.724313,2.017813 1.082281,0.697062 2.430547,0.697062 z m 7.126547,0.972219 4.026453,-5.393063 v 0.898844 l -3.833844,-5.191281 h 1.403297 l 1.522531,2.100359 q 0.394391,0.550313 0.77961,1.100625 0.385218,0.550313 0.779609,1.109797 h -0.596172 q 0.403563,-0.559484 0.788781,-1.109797 0.385219,-0.550312 0.788782,-1.100625 l 1.531703,-2.100359 h 1.384953 l -3.833844,5.191281 v -0.908015 l 3.998938,5.402234 H 47.955396 L 46.203568,91.744378 Q 45.818349,91.203237 45.442302,90.68044 45.066255,90.157643 44.690208,89.616503 h 0.596172 q -0.385219,0.54114 -0.761266,1.063937 -0.376046,0.522797 -0.770437,1.063938 l -1.761,2.393859 z m 10.455937,0 V 80.472143 h 1.247375 v 12.547125 h 6.732157 v 1.118969 z m 12.519609,0.14675 q -0.917188,0 -1.678454,-0.311844 -0.761265,-0.321015 -1.210687,-0.953875 -0.449422,-0.642031 -0.449422,-1.586734 0,-0.761266 0.284328,-1.256547 0.2935,-0.495281 0.816297,-0.797953 0.522797,-0.311844 1.238203,-0.48611 0.715406,-0.174265 1.568391,-0.284328 0.908015,-0.128406 1.476672,-0.210953 0.568656,-0.09172 0.83464,-0.265984 0.275157,-0.183438 0.275157,-0.559485 v -0.14675 q 0,-0.605343 -0.302672,-1.073109 -0.302672,-0.467766 -0.862157,-0.73375 -0.550312,-0.275156 -1.293234,-0.275156 -0.742922,0 -1.329922,0.265984 -0.577828,0.256813 -0.926359,0.715406 -0.33936,0.458594 -0.366875,1.02725 h -1.192344 q 0.02752,-0.8805 0.522797,-1.56839 0.495281,-0.697063 1.339094,-1.100625 0.852984,-0.403563 1.953609,-0.403563 0.807125,0 1.476672,0.229297 0.669547,0.229297 1.146484,0.651203 0.48611,0.421906 0.742922,0.999735 0.265985,0.568656 0.265985,1.265718 v 6.713813 h -1.174 v -1.586734 h -0.02752 q -0.210953,0.449421 -0.614516,0.852984 -0.39439,0.394391 -1.018078,0.642031 -0.623687,0.238469 -1.495015,0.238469 z m 0.14675,-1.073109 q 0.972218,0 1.641765,-0.366875 0.669547,-0.366875 1.018078,-1.008907 0.348532,-0.651203 0.348532,-1.485843 v -1.357438 q -0.128407,0.119234 -0.376047,0.210953 -0.247641,0.08255 -0.596172,0.165094 -0.348531,0.07338 -0.770438,0.137578 -0.421906,0.0642 -0.898843,0.128406 -0.807125,0.110063 -1.403297,0.330188 -0.596172,0.210953 -0.92636,0.577828 -0.321015,0.357703 -0.321015,0.944703 0,0.550313 0.2935,0.935531 0.2935,0.385219 0.807125,0.587 0.513625,0.201782 1.183172,0.201782 z m 10.098236,1.100625 q -0.990562,0 -1.806859,-0.431079 -0.807125,-0.44025 -1.284063,-1.27489 -0.467765,-0.834641 -0.467765,-2.036156 v -6.117641 h 1.174 v 6.044266 q 0,1.302406 0.697062,2.00864 0.697063,0.706235 1.889406,0.706235 0.788782,0 1.421641,-0.321016 0.642031,-0.321016 1.008906,-0.963047 0.376047,-0.642031 0.376047,-1.595906 v -5.879172 h 1.183172 v 9.6855 h -1.155656 v -2.302141 h 0.330187 q -0.431078,1.265719 -1.32075,1.871063 -0.889672,0.605344 -2.045328,0.605344 z m 7.73189,-6.053438 v 5.879172 h -1.174 v -9.6855 h 1.155656 v 2.30214 h -0.330188 q 0.421907,-1.265718 1.311579,-1.871062 0.898843,-0.605344 2.045328,-0.605344 1.008906,0 1.816031,0.44025 0.807125,0.431078 1.274891,1.265719 0.476937,0.825469 0.476937,2.036156 v 6.117641 h -1.183172 v -6.044266 q 0,-1.302406 -0.697062,-2.00864 -0.687891,-0.706235 -1.880235,-0.706235 -0.788781,0 -1.430812,0.321016 -0.63286,0.321015 -1.008906,0.963047 -0.376047,0.642031 -0.376047,1.595906 z m 12.813108,6.071781 q -1.302406,0 -2.302141,-0.642031 -0.999734,-0.651203 -1.559218,-1.779344 -0.550313,-1.137312 -0.550313,-2.604812 0,-1.4675 0.550313,-2.604813 0.559484,-1.146484 1.559218,-1.788515 0.999735,-0.651204 2.302141,-0.651204 0.797953,0 1.476672,0.247641 0.687891,0.238469 1.210688,0.687891 0.531968,0.449422 0.871328,1.063937 0.339359,0.614516 0.458593,1.348266 H 97.19002 q -0.100891,-0.504453 -0.33936,-0.917188 -0.238468,-0.421906 -0.596171,-0.715406 -0.357704,-0.302672 -0.834641,-0.467766 -0.467766,-0.165093 -1.045594,-0.165093 -0.972219,0 -1.705969,0.495281 -0.724578,0.495281 -1.118968,1.394125 -0.394391,0.889672 -0.394391,2.072844 0,1.183172 0.394391,2.072844 0.39439,0.889671 1.118968,1.384953 0.724579,0.486109 1.705969,0.486109 0.577828,0 1.036422,-0.155922 0.467766,-0.155922 0.816297,-0.458594 0.348531,-0.302671 0.587,-0.715406 0.238469,-0.421906 0.357703,-0.935531 h 1.219859 q -0.119234,0.724578 -0.458593,1.339094 -0.33936,0.605343 -0.871328,1.063937 -0.531969,0.449422 -1.210688,0.697063 -0.678719,0.24764 -1.476672,0.24764 z m 6.961456,-6.071781 v 5.879172 h -1.174 V 80.472143 h 1.174 v 6.282734 h -0.34853 q 0.4219,-1.265718 1.31158,-1.871062 0.89884,-0.605344 2.04532,-0.605344 1.00891,0 1.81603,0.44025 0.80713,0.431078 1.2749,1.265719 0.47693,0.825469 0.47693,2.036156 v 6.117641 h -1.18317 v -6.044266 q 0,-1.302406 -0.69706,-2.00864 -0.68789,-0.706235 -1.88024,-0.706235 -0.78878,0 -1.43081,0.321016 -0.63286,0.321015 -1.0089,0.963047 -0.37605,0.642031 -0.37605,1.595906 z m 12.81311,6.071781 q -1.35744,0 -2.348,-0.642031 -0.99057,-0.651203 -1.53171,-1.788516 -0.53196,-1.137312 -0.53196,-2.59564 0,-1.4675 0.55031,-2.604813 0.55948,-1.137312 1.54087,-1.788515 0.98139,-0.651204 2.24711,-0.651204 0.99056,0 1.77935,0.366875 0.79795,0.357704 1.36661,1.02725 0.57782,0.669547 0.8805,1.577563 0.30267,0.908016 0.30267,1.999469 v 0.366875 h -8.04374 v -1.036422 h 7.37419 l -0.49528,0.339359 q 0,-1.073109 -0.40356,-1.871062 -0.39439,-0.807125 -1.1098,-1.256547 -0.70623,-0.449422 -1.65094,-0.449422 -0.9447,0 -1.66011,0.467766 -0.7154,0.458593 -1.11897,1.284062 -0.39439,0.825469 -0.39439,1.935266 v 0.44025 q 0,1.118969 0.39439,1.981125 0.39439,0.852984 1.11897,1.339094 0.73375,0.476937 1.73349,0.476937 0.73375,0 1.32992,-0.247641 0.59617,-0.24764 0.99973,-0.697062 0.41274,-0.458594 0.57783,-1.063938 h 1.18317 q -0.19261,0.92636 -0.77961,1.623422 -0.57782,0.697063 -1.43998,1.082282 -0.85298,0.385218 -1.87106,0.385218 z m 6.04426,-0.192609 v -9.6855 h 1.12814 v 1.61425 h 0.0275 q 0.2935,-0.788781 0.96304,-1.256547 0.66955,-0.476938 1.62343,-0.476938 0.17426,0 0.30267,0.01834 0.1284,0.0092 0.21095,0.01834 v 1.183172 q -0.0734,-0.01834 -0.26598,-0.04586 -0.18344,-0.02752 -0.44025,-0.02752 -0.65121,0 -1.19235,0.302672 -0.54114,0.2935 -0.86215,0.871328 -0.32102,0.577828 -0.32102,1.430812 v 6.053438 z"
       id="text1"
       style="font-weight:300;font-size:18.784px;font-family:'Inter Variable';-inkscape-font-specification:'Inter Variable Light';word-spacing:0px;fill:#ffffff;stroke-width:0.2935"
       transform="scale(0.90147436,1.1092939)"
       aria-label="OxLauncher" /><g
       id="g3"
       transform="matrix(0.89936912,0.89936912,-0.89936912,0.89936912,59.359716,-59.718718)"><rect
         style="fill:#ffffff;fill-opacity:1;stroke-width:0.264583"
         id="rect3"
         width="3.8433261"
         height="21.295038"
         x="68.464752"
         y="50.418663" /><rect
         style="fill:#ffffff;fill-opacity:1;stroke-width:0.264583"
         id="rect3-0"
         width="3.8433261"
         height="21.295038"
         x="-62.987846"
         y="59.738899"
         transform="rotate(-90)" /></g></g></svg>
