<?xml version="1.0" standalone="no"?>
<!DOCTYPE svg PUBLIC "-//W3C//DTD SVG 20010904//EN"
 "http://www.w3.org/TR/2001/REC-SVG-20010904/DTD/svg10.dtd">
<svg version="1.0" xmlns="http://www.w3.org/2000/svg"
 width="1280.000000pt" height="1280.000000pt" viewBox="0 0 1280.000000 1280.000000"
 preserveAspectRatio="xMidYMid meet">
<g transform="translate(0.000000,1280.000000) scale(0.100000,-0.100000)"
fill="#e91e63" stroke="none">
<path d="M6130 12788 c-52 -4 -176 -15 -275 -24 -1726 -146 -3368 -1021 -4436
-2364 -794 -997 -1279 -2211 -1384 -3460 -8 -102 -20 -235 -25 -296 -13 -141
-13 -347 0 -488 5 -61 17 -194 25 -296 105 -1249 590 -2463 1384 -3460 1069
-1345 2713 -2220 4441 -2365 102 -8 235 -20 296 -25 141 -13 347 -13 488 0 61
5 194 17 296 25 1729 145 3371 1020 4443 2367 791 995 1277 2210 1382 3458 8
102 20 235 25 296 13 141 13 347 0 488 -5 61 -17 194 -25 296 -136 1617 -911
3165 -2125 4241 -1012 898 -2351 1471 -3700 1584 -102 8 -235 20 -296 25 -129
12 -378 11 -514 -2z m675 -1349 c284 -24 624 -84 900 -160 339 -92 600 -192
930 -354 531 -261 920 -538 1336 -954 414 -415 696 -808 954 -1336 252 -515
401 -991 480 -1537 38 -265 48 -420 48 -698 0 -278 -10 -433 -48 -698 -58
-400 -160 -784 -312 -1167 -79 -200 -264 -573 -379 -762 -99 -164 -300 -454
-319 -460 -6 -2 -1603 1590 -3550 3538 l-3540 3540 35 30 c19 16 96 72 170
123 872 603 1947 933 2970 910 113 -2 259 -9 325 -15z m-850 -5490 l3540
-3540 -35 -30 c-62 -53 -300 -214 -450 -304 -177 -106 -555 -294 -745 -368
-475 -188 -964 -303 -1475 -348 -174 -16 -606 -16 -780 0 -511 45 -1000 160
-1475 348 -190 74 -568 262 -745 368 -370 223 -647 440 -961 754 -312 312
-523 581 -745 947 -113 186 -298 560 -377 759 -187 473 -303 963 -348 1475
-16 174 -16 606 0 780 45 512 161 1002 348 1475 76 192 262 570 368 745 120
199 315 480 333 480 4 0 1600 -1593 3547 -3541z"/>
</g>
</svg>
